<?xml version="1.0" encoding="UTF-8"?>
<svg id="Calque_10" data-name="Calque 10" xmlns="http://www.w3.org/2000/svg" viewBox="0 0 5667.84 4586.33">
  <defs>
    <style>
      .cls-1 {
        fill: #f15a29;
      }

      .cls-1, .cls-2 {
        stroke-width: 0px;
      }

      .cls-2 {
        fill: #262262;
      }
    </style>
  </defs>
  <path class="cls-2" d="m2604.17,2362.25c-4.55-2.6-10.19.65-10.19,5.86l.87,889.52c0,3.69-3.03,6.72-6.72,6.72l-387.29.43c-3.69,0-6.72-3.04-6.72-6.72V478.91c0-3.69-3.04-6.72-6.72-6.72l-463.84-.22c-3.69,0-6.72,3.03-6.72,6.72l-.22,3257.95c0,3.69,3.03,6.72,6.72,6.72l1343.82-.22c3.69,0,6.72-3.04,6.72-6.72v-1098.78c0-2.39-1.3-4.55-3.25-5.86l-466.44-269.54Z"/>
  <path class="cls-1" d="m3947.34,2122.41l-870.43-502.88c-2.39-1.3-3.69-3.69-3.69-6.51l.65-654.24c0-4.12,3.25-7.37,7.37-7.37l384.91-1.08c4.12,0,7.37,3.25,7.37,7.37v481.41c0,2.82,1.3,5.2,3.69,6.51l462.98,267.38c4.99,2.82,11.06-.87,11.06-6.51l-.22-1226.07c0-4.12-3.25-7.37-7.37-7.37l-1342.52-.65c-4.12,0-7.37,3.25-7.37,7.37l.87,1375.26c0,2.82,1.3,5.2,3.69,6.51l871.52,504.39c2.39,1.3,3.69,3.69,3.69,6.51l-.22,1363.55c0,4.12,3.25,7.37,7.37,7.37h463.19c4.12,0,7.37-3.25,7.37-7.37l-.22-1607.08c0-2.82-1.3-5.2-3.69-6.51Z"/>
</svg>