<?xml version="1.0" encoding="UTF-8"?>
<svg id="Calque_10" data-name="Calque 10" xmlns="http://www.w3.org/2000/svg" viewBox="0 0 5667.84 4586.33">
  <defs>
    <style>
      .cls-1 {
        fill: #f15a29;
      }

      .cls-1, .cls-2 {
        stroke-width: 0px;
      }

      .cls-3 {
        letter-spacing: -.02em;
      }

      .cls-2, .cls-4 {
        fill: #262262;
      }

      .cls-5 {
        letter-spacing: 0em;
      }

      .cls-4 {
        font-family: FranklinGothic-HeavyItalic, 'Franklin Gothic Heavy';
        font-size: 881.77px;
        font-style: italic;
        font-weight: 800;
      }
    </style>
  </defs>
  <g>
    <path class="cls-2" d="m1060.65,2362.02c-1.52-.87-3.39.22-3.39,1.95l.29,296.11c0,1.23-1.01,2.24-2.24,2.24l-128.92.14c-1.23,0-2.24-1.01-2.24-2.24v-925.13c0-1.23-1.01-2.24-2.24-2.24l-154.41-.07c-1.23,0-2.24,1.01-2.24,2.24l-.07,1084.52c0,1.23,1.01,2.24,2.24,2.24l447.34-.07c1.23,0,2.24-1.01,2.24-2.24v-365.77c0-.79-.43-1.52-1.08-1.95l-155.27-89.73Z"/>
    <path class="cls-1" d="m1507.76,2282.18l-289.75-167.4c-.79-.43-1.23-1.23-1.23-2.17l.22-217.78c0-1.37,1.08-2.45,2.45-2.45l128.13-.36c1.37,0,2.45,1.08,2.45,2.45v160.25c0,.94.43,1.73,1.23,2.17l154.12,89.01c1.66.94,3.68-.29,3.68-2.17l-.07-408.14c0-1.37-1.08-2.45-2.45-2.45l-446.9-.22c-1.37,0-2.45,1.08-2.45,2.45l.29,457.8c0,.94.43,1.73,1.23,2.17l290.11,167.9c.79.43,1.23,1.23,1.23,2.17l-.07,453.9c0,1.37,1.08,2.45,2.45,2.45h154.19c1.37,0,2.45-1.08,2.45-2.45l-.07-534.97c0-.94-.43-1.73-1.23-2.17Z"/>
  </g>
  <text class="cls-4" transform="translate(1686.18 2566.17) scale(.83 1)"><tspan class="cls-3" x="0" y="0">L</tspan><tspan class="cls-5" x="449.5" y="0">OUHSIRA</tspan></text>
</svg>